<svg xmlns="http://www.w3.org/2000/svg" width="24" height="24" viewBox="0 0 24 24"><title>alisa</title><path fill="#58A6FF" fill-rule="nonzero" d="M1.52 18.66c-0.14,0 -0.26,-0.05 -0.36,-0.15 -0.1,-0.1 -0.15,-0.22 -0.15,-0.36l0 -12.21c0,-0.14 0.05,-0.26 0.15,-0.36 0.1,-0.1 0.22,-0.15 0.36,-0.15l9.53 0c0.14,0 0.26,0.05 0.36,0.15 0.1,0.1 0.15,0.22 0.15,0.36l0 2.87c0,0.14 -0.05,0.26 -0.15,0.36 -0.1,0.1 -0.22,0.15 -0.36,0.15l-5.41 0 0 1.4 5.03 0c0.14,0 0.26,0.05 0.36,0.15 0.1,0.1 0.15,0.22 0.15,0.36l0 2.86c0,0.14 -0.05,0.26 -0.15,0.36 -0.1,0.1 -0.22,0.15 -0.36,0.15l-5.03 0 0 3.55c0,0.14 -0.05,0.26 -0.15,0.36 -0.1,0.1 -0.22,0.15 -0.36,0.15l-3.61 0zm5.06 -12.35c-0.22,-0.02 -0.39,-0.01 -0.51,0.02 -0.11,0.04 -0.22,0.16 -0.32,0.36 -0.1,0.2 -0.12,0.36 -0.07,0.48 0.05,0.11 0.15,0.24 0.32,0.39 0.17,0.17 0.32,0.28 0.43,0.34 0.12,0.07 0.28,0.04 0.49,-0.07 0.23,-0.13 0.36,-0.25 0.38,-0.38 0.03,-0.13 0.02,-0.32 -0.03,-0.57 -0.04,-0.21 -0.11,-0.35 -0.21,-0.42 -0.1,-0.07 -0.26,-0.12 -0.48,-0.15zm-4.44 0.53c0,-0.08 0,-0.15 0,-0.2 0,-0.05 -0.04,-0.09 -0.13,-0.12 -0.17,-0.05 -0.29,0 -0.38,0.14 -0.06,0.08 -0.1,0.16 -0.11,0.21 -0.02,0.06 0.01,0.13 0.07,0.22 0.13,0.15 0.28,0.2 0.46,0.13 0.08,-0.04 0.12,-0.09 0.11,-0.15 -0.01,-0.06 -0.02,-0.14 -0.02,-0.23zm8.15 -0.09c-0.06,0 -0.1,0.02 -0.11,0.06 -0.01,0.03 -0.03,0.08 -0.06,0.13 -0.02,0.06 -0.05,0.11 -0.07,0.15 -0.03,0.04 -0.02,0.08 0.03,0.13 0.05,0.05 0.1,0.07 0.14,0.05 0.03,-0.02 0.09,-0.04 0.17,-0.07 0.1,-0.07 0.14,-0.15 0.13,-0.24 -0.03,-0.13 -0.1,-0.2 -0.23,-0.21zm-1.47 0.25c-0.03,-0.12 -0.08,-0.18 -0.15,-0.19 -0.07,-0.02 -0.16,-0.03 -0.29,-0.04 -0.1,-0.01 -0.18,-0.01 -0.23,0.02 -0.05,0.02 -0.1,0.09 -0.15,0.19 -0.03,0.09 -0.04,0.15 -0.02,0.2 0.03,0.06 0.08,0.12 0.16,0.19 0.1,0.08 0.17,0.14 0.23,0.18 0.06,0.05 0.14,0.04 0.26,-0.02 0.11,-0.08 0.18,-0.15 0.21,-0.22 0.02,-0.07 0.01,-0.18 -0.02,-0.31zm-5.58 0.09c-0.08,-0.05 -0.14,-0.09 -0.18,-0.11 -0.05,-0.03 -0.1,-0.01 -0.16,0.05 -0.08,0.07 -0.13,0.12 -0.15,0.17 -0.03,0.05 -0.02,0.13 0.03,0.23 0.04,0.09 0.09,0.13 0.14,0.13 0.06,0 0.13,0 0.22,-0.02 0.09,-0.01 0.15,-0.02 0.19,-0.04 0.04,-0.02 0.07,-0.08 0.1,-0.16 0.01,-0.08 0,-0.13 -0.04,-0.16 -0.04,-0.02 -0.09,-0.05 -0.15,-0.09zm6.92 0.83l-0.1 -0.11 -0.13 0.06 -0.07 0.18 0.22 0.04 0.08 -0.17zm-5.16 -0.05c-0.13,-0.04 -0.22,-0.04 -0.29,0 -0.06,0.03 -0.12,0.1 -0.19,0.2 -0.07,0.13 -0.12,0.23 -0.13,0.3 -0.01,0.07 0.03,0.15 0.11,0.25 0.08,0.1 0.16,0.15 0.23,0.14 0.08,0 0.18,-0.02 0.3,-0.06 0.12,-0.05 0.2,-0.1 0.26,-0.14 0.06,-0.05 0.08,-0.13 0.07,-0.26 -0.02,-0.14 -0.05,-0.24 -0.09,-0.29 -0.04,-0.06 -0.14,-0.11 -0.27,-0.14zm-3.14 1.02l-0.12 0.05 -0.07 0.16 0.26 -0.08 -0.07 -0.13zm1.89 0.15l-0.23 -0.1 -0.13 0.16 0.09 0.15 0.15 0 0.12 -0.21zm-0.51 1.62c0,-0.2 -0.03,-0.35 -0.08,-0.44 -0.05,-0.09 -0.17,-0.17 -0.36,-0.22 -0.2,-0.06 -0.35,-0.07 -0.45,-0.04 -0.1,0.04 -0.21,0.15 -0.32,0.33 -0.13,0.16 -0.19,0.3 -0.18,0.4 0,0.11 0.06,0.25 0.18,0.41 0.12,0.15 0.24,0.23 0.34,0.23 0.1,0 0.24,-0.03 0.41,-0.1 0.18,-0.05 0.3,-0.11 0.36,-0.18 0.07,-0.07 0.1,-0.2 0.1,-0.39zm1.34 0.38l-0.15 0.06 -0.08 0.19 0.21 0.06 0.17 -0.16 -0.15 -0.15zm1.87 0.49c-0.11,-0.1 -0.24,-0.11 -0.38,-0.03 -0.11,0.06 -0.2,0.11 -0.26,0.14 -0.06,0.03 -0.09,0.11 -0.08,0.24 0.03,0.12 0.08,0.19 0.15,0.19 0.08,0.01 0.18,0.02 0.31,0.03 0.11,0.01 0.2,0.02 0.25,0.01 0.06,0 0.11,-0.06 0.16,-0.16 0.05,-0.1 0.06,-0.18 0.03,-0.23 -0.03,-0.05 -0.09,-0.11 -0.18,-0.19zm-0.19 1.46c0,-0.11 0.01,-0.21 0.02,-0.28 0.01,-0.08 -0.04,-0.14 -0.15,-0.17 -0.13,-0.04 -0.23,-0.05 -0.3,-0.03 -0.08,0.02 -0.15,0.08 -0.23,0.2 -0.07,0.1 -0.09,0.18 -0.04,0.23 0.05,0.06 0.12,0.14 0.19,0.24 0.07,0.08 0.12,0.12 0.16,0.14 0.05,0.02 0.11,0.02 0.2,-0.01 0.09,-0.02 0.14,-0.06 0.14,-0.11 0.01,-0.05 0.01,-0.12 0.01,-0.21zm-1.87 -0.13c-0.11,-0.08 -0.21,-0.11 -0.28,-0.1 -0.08,0.02 -0.17,0.07 -0.29,0.17 -0.12,0.11 -0.21,0.19 -0.27,0.26 -0.06,0.07 -0.06,0.18 -0.01,0.33 0.06,0.16 0.14,0.26 0.24,0.27 0.09,0.02 0.22,0.03 0.38,0.01 0.14,-0.01 0.24,-0.04 0.29,-0.1 0.05,-0.06 0.09,-0.15 0.13,-0.29 0.04,-0.14 0.05,-0.25 0.03,-0.32 -0.02,-0.08 -0.09,-0.16 -0.22,-0.23zm-2.12 0.51l-0.09 -0.17 -0.17 0.13 0.04 0.21 0.2 0 0.02 -0.17zm5.37 -0.15c-0.07,-0.03 -0.13,-0.02 -0.16,0.02 -0.03,0.03 -0.07,0.09 -0.12,0.15 -0.08,0.09 -0.08,0.18 -0.02,0.28 0.05,0.08 0.09,0.14 0.11,0.19 0.03,0.05 0.09,0.06 0.17,0.04 0.11,-0.03 0.16,-0.06 0.17,-0.11 0.02,-0.06 0.02,-0.13 0.02,-0.23 0,-0.1 0,-0.18 -0.02,-0.22 -0.01,-0.04 -0.06,-0.08 -0.15,-0.12zm1.67 0.32c-0.05,-0.06 -0.1,-0.11 -0.13,-0.13 -0.04,-0.03 -0.1,-0.03 -0.17,0 -0.11,0.03 -0.18,0.07 -0.24,0.09 -0.06,0.03 -0.09,0.1 -0.09,0.21 0.02,0.13 0.04,0.21 0.09,0.25 0.04,0.05 0.13,0.08 0.25,0.11 0.12,0.04 0.21,0.05 0.28,0.04 0.07,-0.02 0.13,-0.07 0.2,-0.17 0.06,-0.09 0.06,-0.16 0.01,-0.2 -0.06,-0.05 -0.13,-0.11 -0.2,-0.2zm-6.04 1.15c-0.02,-0.1 -0.06,-0.16 -0.12,-0.19 -0.05,-0.02 -0.13,-0.03 -0.23,-0.03 -0.16,0 -0.26,0.07 -0.33,0.22 -0.03,0.1 -0.06,0.18 -0.06,0.24 -0.01,0.06 0.03,0.12 0.12,0.2 0.09,0.06 0.16,0.09 0.22,0.08 0.05,0 0.13,-0.04 0.23,-0.1 0.09,-0.06 0.15,-0.12 0.18,-0.17 0.04,-0.05 0.03,-0.13 -0.01,-0.25zm0.57 1.88c-0.02,-0.24 -0.05,-0.43 -0.09,-0.55 -0.04,-0.13 -0.17,-0.22 -0.4,-0.27 -0.28,-0.06 -0.49,-0.07 -0.63,-0.04 -0.15,0.04 -0.29,0.18 -0.43,0.42 -0.14,0.27 -0.2,0.47 -0.18,0.62 0.02,0.16 0.12,0.34 0.31,0.55 0.18,0.19 0.34,0.27 0.48,0.24 0.14,-0.03 0.32,-0.1 0.56,-0.2 0.21,-0.09 0.33,-0.19 0.36,-0.29 0.04,-0.11 0.05,-0.27 0.02,-0.48zm14.13 2.28c-1.65,0 -2.97,-0.4 -3.94,-1.22 -0.98,-0.81 -1.47,-2.1 -1.47,-3.86l0 -0.14c0.03,-1.62 0.53,-2.86 1.5,-3.71 0.98,-0.85 2.28,-1.28 3.89,-1.28 1.24,0 2.25,0.24 3.05,0.71 0.79,0.47 1.38,1.1 1.76,1.87 0.39,0.78 0.58,1.63 0.58,2.57l0 0.56c0,0.14 -0.05,0.26 -0.15,0.36 -0.1,0.1 -0.22,0.15 -0.36,0.15l-5.64 0 0 0.1c0,0.38 0.06,0.66 0.17,0.86 0.1,0.19 0.29,0.29 0.57,0.29 0.12,0 0.21,-0.03 0.29,-0.09 0.07,-0.07 0.16,-0.15 0.26,-0.25 0.11,-0.11 0.21,-0.18 0.28,-0.22 0.08,-0.03 0.19,-0.04 0.34,-0.04l3.58 0c0.12,0 0.23,0.03 0.31,0.11 0.08,0.08 0.12,0.18 0.1,0.3 -0.01,0.24 -0.12,0.53 -0.33,0.86 -0.2,0.34 -0.52,0.66 -0.93,0.98 -0.42,0.31 -0.95,0.57 -1.59,0.78 -0.64,0.21 -1.4,0.31 -2.27,0.31zm-2.72 -8.7c-0.12,0 -0.19,0.03 -0.21,0.09 -0.03,0.06 -0.06,0.14 -0.1,0.25 -0.02,0.07 -0.02,0.12 0.01,0.16 0.03,0.03 0.08,0.07 0.15,0.11 0.06,0.06 0.11,0.11 0.16,0.15 0.04,0.04 0.1,0.03 0.18,-0.02 0.08,-0.06 0.14,-0.12 0.17,-0.17 0.02,-0.05 0.01,-0.13 -0.02,-0.24 -0.03,-0.12 -0.06,-0.2 -0.11,-0.25 -0.04,-0.05 -0.12,-0.08 -0.23,-0.08zm1.94 2.35l0.57 0c-0.01,-0.03 -0.02,-0.06 -0.04,-0.1 -0.06,-0.22 -0.1,-0.42 -0.13,-0.58 -0.02,-0.17 -0.02,-0.32 0.02,-0.46 0.09,-0.05 0.2,-0.07 0.34,-0.07 0.51,0 0.76,0.4 0.76,1.19l-0.95 0.02c0.1,0.35 0.18,0.67 0.22,0.94 0.04,0.28 0.14,0.5 0.28,0.66 0.15,0.15 0.41,0.24 0.79,0.25 0.46,0.02 0.84,-0.02 1.12,-0.1 0.29,-0.08 0.52,-0.24 0.69,-0.47 0.18,-0.24 0.34,-0.57 0.49,-1.02 0.13,-0.37 0.14,-0.66 0.04,-0.86 -0.1,-0.19 -0.28,-0.37 -0.54,-0.52 -0.25,-0.15 -0.54,-0.34 -0.86,-0.58 -0.36,-0.28 -0.66,-0.43 -0.9,-0.45 -0.23,-0.02 -0.53,0.1 -0.91,0.35 -0.32,0.23 -0.51,0.45 -0.57,0.66 -0.28,0.16 -0.42,0.53 -0.42,1.14zm-2.72 -1.21c-0.07,-0.03 -0.13,-0.03 -0.18,0 -0.04,0.02 -0.09,0.07 -0.14,0.13 -0.08,0.08 -0.14,0.14 -0.2,0.18 -0.06,0.05 -0.06,0.12 -0.01,0.22 0.06,0.1 0.13,0.13 0.19,0.1 0.06,-0.03 0.15,-0.06 0.27,-0.08 0.11,-0.03 0.17,-0.1 0.18,-0.23 0.02,-0.08 0.02,-0.14 0.01,-0.19 0,-0.05 -0.04,-0.09 -0.12,-0.13zm1.48 0.21c-0.16,-0.08 -0.27,-0.11 -0.35,-0.1 -0.09,0.01 -0.18,0.08 -0.28,0.19 -0.11,0.13 -0.17,0.23 -0.19,0.31 -0.01,0.09 0.03,0.2 0.12,0.33 0.06,0.13 0.13,0.18 0.21,0.17 0.09,-0.02 0.2,-0.05 0.33,-0.07 0.13,-0.03 0.23,-0.05 0.31,-0.07 0.07,-0.02 0.12,-0.09 0.13,-0.23 0.01,-0.15 0,-0.27 -0.03,-0.33 -0.03,-0.07 -0.12,-0.14 -0.25,-0.2zm-0.82 1.59c-0.06,-0.09 -0.12,-0.14 -0.19,-0.14 -0.06,0 -0.14,0.02 -0.24,0.06 -0.12,0.04 -0.19,0.08 -0.23,0.12 -0.04,0.05 -0.06,0.13 -0.06,0.24 0,0.14 0.01,0.25 0.03,0.32 0.02,0.08 0.09,0.13 0.22,0.17 0.14,0.04 0.24,0.04 0.3,-0.01 0.07,-0.04 0.14,-0.13 0.23,-0.25 0.08,-0.1 0.11,-0.19 0.09,-0.26 -0.01,-0.07 -0.06,-0.15 -0.15,-0.25zm0.97 0.18c-0.1,-0.01 -0.17,0.01 -0.19,0.06 -0.03,0.05 -0.06,0.13 -0.12,0.23 -0.03,0.1 -0.06,0.18 -0.09,0.23 -0.03,0.06 0,0.12 0.08,0.18 0.08,0.09 0.16,0.14 0.22,0.14 0.07,0 0.15,-0.03 0.27,-0.1 0.1,-0.06 0.17,-0.12 0.22,-0.17 0.05,-0.05 0.06,-0.14 0.02,-0.26 -0.02,-0.13 -0.07,-0.21 -0.13,-0.24 -0.06,-0.03 -0.16,-0.05 -0.28,-0.07zm-1.72 0.74c-0.15,-0.04 -0.27,-0.04 -0.33,0 -0.07,0.04 -0.15,0.12 -0.24,0.25 -0.06,0.11 -0.07,0.2 -0.03,0.25 0.04,0.06 0.1,0.14 0.18,0.24 0.06,0.09 0.12,0.14 0.17,0.16 0.05,0.02 0.12,0.01 0.21,-0.03 0.16,-0.06 0.24,-0.18 0.24,-0.36 0,-0.14 0,-0.25 0,-0.33 0,-0.08 -0.06,-0.14 -0.2,-0.18zm0.64 1.57c0,-0.09 0,-0.16 0.01,-0.21 0.01,-0.05 -0.03,-0.08 -0.11,-0.09 -0.08,-0.03 -0.14,-0.02 -0.17,0.01 -0.04,0.03 -0.08,0.08 -0.13,0.16 -0.04,0.05 -0.05,0.09 -0.03,0.12 0.02,0.03 0.05,0.07 0.09,0.13 0.05,0.06 0.09,0.11 0.11,0.16 0.03,0.04 0.08,0.05 0.15,0.02 0.08,-0.02 0.11,-0.06 0.1,-0.11 -0.01,-0.05 -0.02,-0.11 -0.02,-0.19zm1.29 -0.02c-0.12,-0.11 -0.25,-0.13 -0.4,-0.05 -0.1,0.06 -0.18,0.11 -0.22,0.15 -0.04,0.04 -0.06,0.11 -0.05,0.22 0.03,0.12 0.07,0.18 0.14,0.19 0.06,0.02 0.15,0.03 0.26,0.04 0.11,0.01 0.21,0.02 0.27,0.03 0.07,0.01 0.13,-0.04 0.18,-0.14 0.05,-0.1 0.06,-0.18 0.01,-0.24 -0.04,-0.06 -0.11,-0.12 -0.19,-0.2zm3.55 0.51c-0.02,-0.06 -0.05,-0.1 -0.08,-0.11 -0.04,-0.01 -0.08,-0.02 -0.15,-0.02 -0.11,0 -0.18,0.04 -0.2,0.11 -0.04,0.11 -0.02,0.19 0.05,0.25 0.07,0.04 0.11,0.07 0.14,0.1 0.04,0.02 0.08,0.01 0.15,-0.02 0.06,-0.05 0.09,-0.1 0.1,-0.14 0.01,-0.03 0,-0.09 -0.01,-0.17zm-0.83 0.85c-0.01,-0.15 -0.02,-0.27 -0.03,-0.35 -0.01,-0.09 -0.08,-0.16 -0.24,-0.19 -0.19,-0.05 -0.33,-0.08 -0.43,-0.07 -0.1,0.01 -0.2,0.09 -0.3,0.26 -0.1,0.15 -0.12,0.26 -0.04,0.34 0.07,0.07 0.16,0.18 0.26,0.32 0.09,0.11 0.17,0.18 0.24,0.21 0.07,0.02 0.17,0.01 0.29,-0.04 0.13,-0.05 0.2,-0.11 0.23,-0.18 0.03,-0.07 0.03,-0.17 0.02,-0.3zm2.17 -0.13c-0.06,-0.15 -0.11,-0.27 -0.16,-0.35 -0.04,-0.08 -0.15,-0.11 -0.33,-0.1 -0.2,0.02 -0.35,0.06 -0.45,0.11 -0.1,0.05 -0.17,0.18 -0.21,0.38 -0.04,0.19 -0.02,0.32 0.07,0.4 0.08,0.07 0.21,0.16 0.38,0.26 0.17,0.1 0.3,0.17 0.41,0.21 0.11,0.04 0.24,-0.01 0.39,-0.15 0.15,-0.13 0.19,-0.24 0.12,-0.34 -0.07,-0.1 -0.14,-0.24 -0.22,-0.42zm-4.46 -0.04l-0.19 -0.11 -0.13 0.19 0.13 0.13 0.19 0.02 0 -0.23zm-0.68 0.4c-0.09,-0.01 -0.15,0 -0.18,0.03 -0.03,0.03 -0.07,0.09 -0.1,0.16 -0.05,0.08 -0.09,0.14 -0.1,0.19 -0.01,0.05 0.01,0.11 0.08,0.17 0.09,0.08 0.15,0.13 0.2,0.16 0.06,0.03 0.13,0.02 0.23,-0.03 0.09,-0.05 0.12,-0.1 0.11,-0.17 -0.02,-0.06 -0.04,-0.14 -0.05,-0.24 -0.01,-0.08 -0.03,-0.14 -0.05,-0.18 -0.02,-0.05 -0.06,-0.08 -0.14,-0.09z"/></svg>