<svg xmlns="http://www.w3.org/2000/svg" width="24" height="24" viewBox="0 0 24 24"><title>alisa</title><path fill="#58A6FF" fill-rule="nonzero" d="M0.89 17.74c-0.12,0 -0.22,-0.04 -0.31,-0.13 -0.09,-0.08 -0.13,-0.19 -0.13,-0.31l0 -10.51c0,-0.12 0.04,-0.23 0.13,-0.31 0.09,-0.09 0.19,-0.13 0.31,-0.13l2.57 0c0.22,0 0.38,0.06 0.49,0.18 0.11,0.11 0.18,0.2 0.21,0.26l2.36 3.9 2.36 -3.9c0.04,-0.06 0.11,-0.15 0.22,-0.26 0.1,-0.12 0.27,-0.18 0.48,-0.18l2.58 0c0.12,0 0.22,0.04 0.31,0.13 0.08,0.08 0.13,0.19 0.13,0.31l0 10.51c0,0.12 -0.05,0.23 -0.13,0.31 -0.09,0.09 -0.19,0.13 -0.31,0.13l-2.95 0c-0.12,0 -0.22,-0.04 -0.31,-0.13 -0.09,-0.08 -0.13,-0.19 -0.13,-0.31l0 -4.46 -1.07 1.76c-0.06,0.09 -0.13,0.18 -0.22,0.27 -0.1,0.09 -0.22,0.14 -0.39,0.14l-1.14 0c-0.16,0 -0.29,-0.05 -0.38,-0.14 -0.09,-0.09 -0.17,-0.18 -0.22,-0.27l-1.07 -1.76 0 4.46c0,0.12 -0.05,0.23 -0.13,0.31 -0.09,0.09 -0.19,0.13 -0.31,0.13l-2.95 0zm11.02 -10.94c-0.11,-0.06 -0.21,-0.04 -0.32,0.07 -0.05,0.04 -0.06,0.08 -0.04,0.12 0.01,0.04 0.04,0.09 0.07,0.15 0.03,0.06 0.06,0.1 0.07,0.13 0.02,0.04 0.06,0.05 0.13,0.04 0.07,-0.01 0.13,-0.03 0.17,-0.05 0.03,-0.02 0.06,-0.07 0.07,-0.15 0.02,-0.14 -0.03,-0.24 -0.15,-0.31zm-2.41 0.21c-0.07,-0.03 -0.13,-0.03 -0.17,0 -0.04,0.04 -0.08,0.09 -0.14,0.15 -0.04,0.05 -0.06,0.1 -0.05,0.14 0.02,0.04 0.04,0.08 0.07,0.14 0.05,0.08 0.13,0.12 0.23,0.09 0.1,-0.03 0.15,-0.09 0.16,-0.19 0,-0.09 0,-0.16 0.01,-0.2 0,-0.05 -0.03,-0.09 -0.11,-0.13zm-8.3 0.13l-0.21 0.07 -0.17 0.16 0.22 0.13 0.21 -0.1 -0.05 -0.26zm9.59 1.03c-0.13,-0.03 -0.21,-0.01 -0.24,0.06 -0.02,0.08 -0.07,0.17 -0.14,0.27 -0.06,0.1 -0.11,0.19 -0.16,0.24 -0.04,0.05 -0.03,0.13 0.05,0.23 0.09,0.1 0.16,0.15 0.23,0.15 0.06,0.01 0.16,-0.02 0.29,-0.07 0.11,-0.04 0.18,-0.1 0.21,-0.16 0.02,-0.06 0.03,-0.14 0.02,-0.26 -0.01,-0.13 -0.03,-0.23 -0.05,-0.31 -0.02,-0.07 -0.09,-0.12 -0.21,-0.15zm-8.99 0.46c-0.02,-0.1 -0.04,-0.17 -0.06,-0.22 -0.03,-0.04 -0.09,-0.06 -0.18,-0.06 -0.1,0 -0.17,0.01 -0.21,0.04 -0.04,0.03 -0.08,0.09 -0.12,0.19 -0.03,0.07 -0.03,0.13 0,0.17 0.03,0.04 0.08,0.08 0.15,0.14 0.09,0.08 0.2,0.09 0.31,0.01 0.11,-0.06 0.14,-0.15 0.11,-0.27zm1.73 -0.05c-0.03,-0.08 -0.09,-0.11 -0.2,-0.1 -0.05,0 -0.1,0 -0.14,0.01 -0.04,0 -0.07,0.03 -0.09,0.09 -0.01,0.06 0.01,0.1 0.04,0.11 0.04,0.01 0.09,0.03 0.14,0.07 0.05,0.03 0.08,0.06 0.11,0.09 0.03,0.02 0.07,0.01 0.12,-0.03 0.04,-0.03 0.06,-0.07 0.06,-0.1 -0.01,-0.04 -0.02,-0.09 -0.04,-0.14zm6.02 0.37c-0.09,0 -0.15,0 -0.2,-0.01 -0.05,0 -0.09,0.04 -0.12,0.13 -0.04,0.09 -0.05,0.17 -0.04,0.22 0.01,0.04 0.06,0.1 0.13,0.17 0.08,0.06 0.14,0.08 0.18,0.05 0.05,-0.04 0.11,-0.08 0.18,-0.14 0.08,-0.04 0.13,-0.08 0.16,-0.11 0.04,-0.03 0.04,-0.09 0.02,-0.18 -0.02,-0.07 -0.06,-0.12 -0.1,-0.12 -0.05,-0.01 -0.12,-0.01 -0.21,-0.01zm-4.93 0.69c-0.09,-0.09 -0.16,-0.15 -0.22,-0.18 -0.06,-0.02 -0.14,-0.01 -0.24,0.05 -0.12,0.06 -0.2,0.12 -0.23,0.18 -0.04,0.06 -0.05,0.16 -0.01,0.3 0.02,0.12 0.06,0.2 0.12,0.22 0.06,0.03 0.15,0.05 0.28,0.08 0.1,0.01 0.17,-0.01 0.2,-0.06 0.03,-0.05 0.07,-0.12 0.11,-0.2 0.05,-0.09 0.07,-0.16 0.09,-0.22 0.01,-0.05 -0.03,-0.11 -0.1,-0.17zm-1.7 0.03c-0.29,-0.11 -0.51,-0.14 -0.66,-0.08 -0.16,0.06 -0.33,0.21 -0.52,0.45 -0.1,0.14 -0.14,0.26 -0.12,0.34 0.02,0.09 0.08,0.18 0.16,0.28 0.09,0.1 0.18,0.22 0.26,0.36 0.14,0.18 0.24,0.33 0.31,0.45 0.08,0.11 0.23,0.14 0.44,0.07 0.23,-0.06 0.35,-0.16 0.37,-0.29 0.02,-0.13 0.03,-0.32 0.04,-0.56 0.01,-0.17 0.03,-0.32 0.05,-0.45 0.02,-0.13 0.01,-0.24 -0.02,-0.34 -0.04,-0.09 -0.14,-0.17 -0.31,-0.23zm8.42 0.03c-0.07,-0.01 -0.13,-0.02 -0.18,-0.02 -0.04,0 -0.08,0.04 -0.11,0.12 -0.03,0.06 -0.03,0.11 0.02,0.13 0.04,0.02 0.09,0.05 0.14,0.1 0.05,0.05 0.08,0.1 0.1,0.14 0.02,0.05 0.07,0.05 0.13,0.02 0.12,-0.06 0.17,-0.16 0.15,-0.31 -0.01,-0.07 -0.04,-0.11 -0.08,-0.13 -0.03,-0.02 -0.09,-0.04 -0.17,-0.05zm-0.53 1.06c-0.06,-0.07 -0.11,-0.1 -0.17,-0.09 -0.05,0 -0.12,0.02 -0.21,0.06 -0.06,0.02 -0.1,0.05 -0.1,0.09 0,0.05 0,0.1 0,0.17 0,0.11 0.05,0.17 0.13,0.19 0.1,0.03 0.18,0.07 0.23,0.1 0.06,0.03 0.11,0.01 0.16,-0.08 0.07,-0.09 0.1,-0.16 0.09,-0.22 -0.02,-0.06 -0.06,-0.13 -0.13,-0.22zm-2.82 0.19c-0.14,-0.08 -0.26,-0.12 -0.34,-0.1 -0.09,0.01 -0.2,0.08 -0.33,0.19 -0.17,0.14 -0.32,0.24 -0.45,0.31 -0.12,0.07 -0.15,0.21 -0.07,0.42 0.09,0.23 0.19,0.36 0.32,0.39 0.12,0.03 0.31,0.04 0.56,0.03 0.19,-0.01 0.32,-0.06 0.38,-0.14 0.06,-0.09 0.12,-0.23 0.19,-0.43 0.04,-0.16 0.05,-0.29 0.01,-0.37 -0.04,-0.09 -0.13,-0.19 -0.27,-0.3zm1.61 0.28c-0.08,-0.07 -0.15,-0.1 -0.21,-0.06 -0.08,0.04 -0.11,0.11 -0.1,0.21 0.01,0.06 0.03,0.11 0.04,0.15 0.02,0.04 0.06,0.06 0.12,0.08 0.07,0.01 0.11,-0.01 0.13,-0.05 0.01,-0.03 0.04,-0.08 0.07,-0.13 0.03,-0.07 0.02,-0.13 -0.05,-0.2zm-4.77 0c-0.03,-0.04 -0.09,-0.04 -0.16,0 -0.06,0.02 -0.1,0.04 -0.13,0.05 -0.02,0.01 -0.04,0.04 -0.04,0.08 0.01,0.09 0.07,0.14 0.18,0.16 0.11,0.03 0.18,0 0.21,-0.08 0.04,-0.04 0.05,-0.08 0.03,-0.1 -0.02,-0.03 -0.05,-0.07 -0.09,-0.11zm5.94 0.65c0,-0.07 0.01,-0.13 0.03,-0.18 0.01,-0.04 -0.01,-0.07 -0.08,-0.09 -0.07,-0.03 -0.12,-0.02 -0.15,0.01 -0.03,0.03 -0.07,0.08 -0.12,0.13 -0.05,0.08 -0.04,0.16 0.01,0.25 0.05,0.05 0.08,0.09 0.11,0.11 0.03,0.02 0.07,0.02 0.14,0 0.05,-0.01 0.08,-0.03 0.07,-0.07 0,-0.04 -0.01,-0.09 -0.01,-0.16zm-4.67 -0.05c-0.13,-0.05 -0.23,-0.05 -0.29,0 -0.07,0.06 -0.14,0.14 -0.23,0.26 -0.1,0.12 -0.18,0.22 -0.23,0.29 -0.05,0.07 -0.04,0.17 0.05,0.3 0.1,0.15 0.19,0.24 0.28,0.27 0.08,0.03 0.21,0.02 0.37,-0.03 0.15,-0.04 0.23,-0.1 0.24,-0.19 0,-0.09 0.01,-0.21 0.02,-0.36 0.01,-0.14 0.01,-0.25 0.01,-0.33 -0.01,-0.08 -0.08,-0.15 -0.22,-0.21zm-4.84 0.17l-0.11 -0.1 -0.05 0.15 0.05 0.09 0.13 -0.01 -0.02 -0.13zm10.72 0.75c-0.07,-0.21 -0.15,-0.34 -0.25,-0.4 -0.09,-0.06 -0.25,-0.09 -0.47,-0.09 -0.2,0 -0.35,0.03 -0.43,0.1 -0.08,0.07 -0.15,0.21 -0.22,0.4 -0.05,0.19 -0.06,0.32 -0.02,0.41 0.05,0.09 0.15,0.19 0.31,0.31 0.13,0.1 0.24,0.13 0.33,0.1 0.09,-0.04 0.19,-0.1 0.32,-0.2 0.16,-0.11 0.28,-0.2 0.37,-0.27 0.09,-0.07 0.11,-0.19 0.06,-0.36zm-8.14 -0.49l-0.09 0.06 -0.01 0.12 0.13 0.01 0.03 -0.11 -0.06 -0.08zm-1.88 0.6c-0.13,-0.09 -0.23,-0.16 -0.31,-0.2 -0.07,-0.05 -0.17,-0.03 -0.29,0.05 -0.13,0.1 -0.19,0.19 -0.18,0.28 0.01,0.09 0.05,0.21 0.1,0.36 0.04,0.15 0.09,0.26 0.15,0.32 0.05,0.06 0.15,0.09 0.31,0.09 0.19,0 0.35,-0.01 0.46,-0.03 0.11,-0.02 0.2,-0.12 0.25,-0.3 0.06,-0.19 0.03,-0.3 -0.09,-0.34 -0.11,-0.05 -0.24,-0.12 -0.4,-0.23zm1.73 0.03l-0.18 -0.11 -0.08 0.18 0.05 0.13 0.21 0.01 0 -0.21zm3.21 0.21c-0.09,-0.04 -0.15,-0.05 -0.2,-0.01 -0.04,0.03 -0.1,0.08 -0.16,0.14 -0.09,0.09 -0.1,0.19 -0.03,0.31 0.03,0.07 0.06,0.12 0.09,0.15 0.02,0.03 0.08,0.04 0.17,0.03 0.08,-0.01 0.15,-0.03 0.19,-0.05 0.05,-0.03 0.08,-0.09 0.1,-0.18 0.01,-0.1 0.01,-0.19 -0.01,-0.24 -0.01,-0.05 -0.07,-0.1 -0.15,-0.15zm3.71 1.06c-0.13,-0.11 -0.23,-0.13 -0.31,-0.07 -0.08,0.06 -0.18,0.13 -0.32,0.22 -0.16,0.1 -0.29,0.17 -0.4,0.21 -0.12,0.04 -0.15,0.16 -0.09,0.34 0.04,0.2 0.11,0.31 0.22,0.35 0.1,0.04 0.25,0.06 0.46,0.08 0.16,0.01 0.27,-0.03 0.32,-0.11 0.05,-0.08 0.1,-0.2 0.15,-0.35 0.07,-0.15 0.11,-0.27 0.13,-0.37 0.02,-0.09 -0.03,-0.19 -0.16,-0.3zm0.98 0.07l-0.21 0.05 -0.07 0.22 0.21 0.04 0.16 -0.1 -0.09 -0.21zm-9.04 0.65c0,-0.09 0,-0.15 0,-0.2 0,-0.04 -0.04,-0.07 -0.11,-0.09 -0.08,-0.03 -0.13,-0.02 -0.16,0.02 -0.03,0.04 -0.06,0.09 -0.1,0.15 -0.05,0.08 -0.04,0.16 0.03,0.23 0.06,0.1 0.14,0.13 0.23,0.1 0.07,-0.03 0.11,-0.1 0.11,-0.21zm9.04 1.38c-0.08,-0.13 -0.14,-0.23 -0.19,-0.29 -0.05,-0.07 -0.15,-0.08 -0.3,-0.05 -0.15,0.03 -0.26,0.08 -0.31,0.15 -0.06,0.06 -0.09,0.18 -0.11,0.34 -0.02,0.15 0,0.26 0.04,0.33 0.05,0.06 0.14,0.13 0.28,0.19 0.16,0.08 0.29,0.13 0.39,0.17 0.1,0.04 0.21,-0.01 0.33,-0.15 0.12,-0.12 0.15,-0.23 0.09,-0.32 -0.06,-0.09 -0.14,-0.22 -0.22,-0.37zm-8.8 -0.23l-0.16 -0.09 -0.23 -0.02 0.02 0.28 0.24 0 0.13 -0.17zm6.73 0.25l-0.16 0.08 0 0.2 0.19 0.06 0.12 -0.19 -0.15 -0.15zm5.14 1.46c-0.11,0 -0.22,-0.04 -0.3,-0.13 -0.09,-0.08 -0.13,-0.19 -0.13,-0.31l0 -7.58c0,-0.12 0.04,-0.23 0.13,-0.31 0.08,-0.09 0.19,-0.13 0.3,-0.13l2.92 0c0.12,0 0.22,0.04 0.31,0.13 0.09,0.08 0.13,0.19 0.13,0.31l0 3.3 2.26 -3.47c0.12,-0.18 0.28,-0.27 0.47,-0.27l2.59 0c0.12,0 0.23,0.04 0.31,0.13 0.09,0.08 0.13,0.19 0.13,0.31l0 7.58c0,0.12 -0.04,0.23 -0.13,0.31 -0.08,0.09 -0.19,0.13 -0.31,0.13l-2.91 0c-0.12,0 -0.22,-0.04 -0.31,-0.13 -0.09,-0.08 -0.13,-0.19 -0.13,-0.31l0 -3.3 -2.26 3.47c-0.12,0.18 -0.28,0.27 -0.48,0.27l-2.59 0zm2.25 -8.02c-0.07,-0.01 -0.13,-0.02 -0.17,-0.01 -0.04,0 -0.07,0.04 -0.1,0.1 -0.05,0.08 -0.08,0.14 -0.1,0.19 -0.02,0.05 0,0.11 0.06,0.19 0.06,0.06 0.11,0.08 0.16,0.06 0.05,-0.03 0.11,-0.06 0.2,-0.09 0.11,-0.06 0.16,-0.14 0.15,-0.25 -0.01,-0.1 -0.08,-0.16 -0.2,-0.19zm5.23 0.13c-0.08,-0.04 -0.13,-0.04 -0.17,0 -0.04,0.03 -0.09,0.08 -0.14,0.14 -0.05,0.07 -0.09,0.12 -0.11,0.17 -0.03,0.04 -0.02,0.1 0.03,0.18 0.04,0.07 0.09,0.11 0.14,0.11 0.05,0 0.11,-0.01 0.2,-0.03 0.08,-0.01 0.12,-0.04 0.14,-0.08 0.01,-0.03 0.03,-0.09 0.04,-0.17 0.01,-0.08 0.01,-0.15 0.01,-0.2 -0.01,-0.05 -0.05,-0.09 -0.14,-0.12zm0.67 0l-0.1 0.09 0 0.17 0.16 -0.02 0.05 -0.15 -0.11 -0.09zm-6.53 0.71c-0.19,-0.05 -0.32,-0.05 -0.41,0 -0.09,0.06 -0.19,0.16 -0.31,0.31 -0.12,0.15 -0.2,0.28 -0.23,0.39 -0.03,0.1 0.01,0.23 0.12,0.39 0.12,0.17 0.23,0.25 0.34,0.27 0.11,0.01 0.25,-0.02 0.44,-0.09 0.19,-0.05 0.34,-0.11 0.43,-0.18 0.09,-0.06 0.14,-0.2 0.14,-0.4 0,-0.22 -0.04,-0.37 -0.11,-0.45 -0.07,-0.08 -0.21,-0.16 -0.41,-0.24zm4.8 0.33l-0.13 -0.02 -0.13 0.12 0.15 0.18 0.18 -0.12 -0.07 -0.16zm1.48 0.23c-0.25,-0.04 -0.45,-0.07 -0.59,-0.09 -0.15,-0.03 -0.28,0.07 -0.38,0.28 -0.12,0.24 -0.14,0.42 -0.05,0.53 0.08,0.12 0.22,0.27 0.4,0.45 0.13,0.13 0.25,0.17 0.35,0.12 0.11,-0.05 0.24,-0.11 0.4,-0.19 0.18,-0.08 0.31,-0.15 0.42,-0.21 0.1,-0.05 0.14,-0.17 0.1,-0.36 -0.03,-0.2 -0.09,-0.33 -0.19,-0.39 -0.1,-0.05 -0.25,-0.1 -0.46,-0.14zm-2.34 0.24l-0.18 -0.15 -0.15 0.17 0.07 0.14 0.19 0.09 0.07 -0.25zm0.78 0.34l-0.15 -0.03 -0.06 0.11 0.05 0.14 0.11 -0.09 0.05 -0.13zm-0.68 0.33c-0.03,-0.06 -0.04,-0.1 -0.05,-0.13 -0.01,-0.03 -0.05,-0.05 -0.12,-0.05 -0.05,0 -0.08,0.02 -0.08,0.07 0,0.04 -0.01,0.09 -0.03,0.14 -0.02,0.08 -0.02,0.12 0.01,0.13l0.27 0.08c0.04,-0.04 0.05,-0.08 0.04,-0.11 -0.01,-0.03 -0.02,-0.08 -0.04,-0.13zm-3.23 -0.11c-0.07,-0.02 -0.13,0.02 -0.18,0.09 -0.03,0.06 -0.06,0.1 -0.07,0.13 -0.02,0.04 0,0.07 0.04,0.12 0.04,0.05 0.08,0.07 0.12,0.05 0.04,-0.01 0.09,-0.03 0.14,-0.05 0.05,-0.04 0.1,-0.06 0.14,-0.08 0.04,-0.01 0.05,-0.05 0.04,-0.12 -0.01,-0.06 -0.04,-0.1 -0.07,-0.11 -0.04,-0.01 -0.09,-0.02 -0.16,-0.03zm0.46 0.55l-0.18 0.03 -0.02 0.21 0.2 0 0.16 -0.11 -0.16 -0.13zm1.98 0.23c-0.06,-0.09 -0.12,-0.14 -0.18,-0.17 -0.05,-0.02 -0.13,-0.01 -0.24,0.04 -0.1,0.03 -0.15,0.07 -0.15,0.13 -0.01,0.05 -0.01,0.13 -0.01,0.24 0.01,0.11 0.02,0.19 0.03,0.25 0.01,0.06 0.07,0.1 0.18,0.13 0.1,0.03 0.17,0.02 0.21,-0.02 0.04,-0.04 0.09,-0.11 0.15,-0.21 0.05,-0.08 0.08,-0.14 0.1,-0.2 0.01,-0.05 -0.02,-0.12 -0.09,-0.19zm-3.42 -0.04c-0.05,-0.1 -0.13,-0.15 -0.24,-0.13 -0.11,0.03 -0.2,0.03 -0.28,0.02 -0.07,-0.01 -0.12,0.04 -0.14,0.16 -0.01,0.11 0.01,0.18 0.08,0.2 0.06,0.02 0.14,0.06 0.24,0.11 0.1,0.06 0.18,0.1 0.23,0.12 0.05,0.03 0.12,0.01 0.2,-0.07 0.07,-0.06 0.09,-0.12 0.05,-0.18 -0.04,-0.05 -0.08,-0.13 -0.14,-0.23zm4.91 0.25c-0.16,0 -0.25,0.04 -0.27,0.13 -0.03,0.09 -0.07,0.2 -0.13,0.34 -0.04,0.13 -0.07,0.23 -0.08,0.3 -0.02,0.07 0.02,0.15 0.13,0.24 0.13,0.11 0.24,0.17 0.33,0.19 0.09,0.03 0.2,-0.01 0.34,-0.09 0.13,-0.09 0.19,-0.18 0.18,-0.27 -0.01,-0.1 -0.04,-0.22 -0.08,-0.37 -0.04,-0.15 -0.09,-0.27 -0.12,-0.34 -0.04,-0.08 -0.14,-0.12 -0.3,-0.13zm-4.19 0.65l-0.19 -0.05 -0.12 0.11 0.08 0.12 0.15 0 0.08 -0.18zm2.35 0.37l-0.18 -0.01 -0.04 0.14 0.09 0.1 0.16 -0.03 -0.03 -0.2zm-2.51 0.83c-0.06,-0.09 -0.1,-0.17 -0.13,-0.22 -0.04,-0.06 -0.11,-0.08 -0.23,-0.07 -0.11,0.02 -0.17,0.06 -0.19,0.12 -0.01,0.06 -0.03,0.15 -0.05,0.27 -0.02,0.1 -0.02,0.18 -0.01,0.23 0,0.05 0.05,0.1 0.14,0.15 0.1,0.06 0.19,0.1 0.26,0.12 0.07,0.02 0.15,-0.02 0.24,-0.11 0.09,-0.08 0.12,-0.16 0.09,-0.22 -0.03,-0.07 -0.07,-0.16 -0.12,-0.27zm4.25 -0.13c-0.09,-0.03 -0.16,-0.04 -0.21,-0.02 -0.04,0.02 -0.1,0.06 -0.15,0.14 -0.04,0.07 -0.06,0.14 -0.06,0.19 0.01,0.04 0.04,0.11 0.09,0.18 0.05,0.06 0.09,0.08 0.13,0.06 0.05,-0.02 0.11,-0.04 0.18,-0.07 0.09,-0.04 0.13,-0.1 0.13,-0.18 0,-0.09 0,-0.15 0,-0.2 0,-0.04 -0.04,-0.07 -0.11,-0.1zm-2.01 0.04l-0.13 -0.05 -0.14 0.08 0.08 0.18 0.18 -0.05 0.01 -0.16zm-3.25 0.42c-0.03,-0.12 -0.11,-0.18 -0.21,-0.2 -0.11,-0.01 -0.19,0.05 -0.23,0.17 -0.02,0.06 -0.03,0.11 -0.03,0.15 0,0.04 0.02,0.08 0.08,0.12 0.09,0.09 0.2,0.1 0.31,0.04 0.06,-0.04 0.09,-0.07 0.09,-0.12 0,-0.04 0,-0.09 -0.01,-0.16zm6.45 0.08c-0.26,0 -0.44,0.05 -0.54,0.14 -0.1,0.09 -0.19,0.26 -0.26,0.5 -0.08,0.2 -0.06,0.34 0.05,0.41 0.11,0.07 0.24,0.17 0.4,0.29 0.13,0.11 0.24,0.17 0.33,0.18 0.09,0.01 0.2,-0.04 0.34,-0.13 0.13,-0.09 0.21,-0.18 0.23,-0.26 0.02,-0.09 0.01,-0.22 -0.03,-0.38 -0.08,-0.22 -0.13,-0.4 -0.15,-0.54 -0.02,-0.14 -0.15,-0.21 -0.37,-0.21zm-3.65 0.25c-0.03,-0.06 -0.06,-0.1 -0.08,-0.13 -0.02,-0.04 -0.06,-0.05 -0.12,-0.04 -0.11,0.04 -0.16,0.11 -0.18,0.23 -0.01,0.1 0.04,0.17 0.15,0.21 0.06,0.02 0.09,0.02 0.11,0 0.03,-0.02 0.06,-0.05 0.1,-0.08 0.05,-0.06 0.05,-0.13 0.02,-0.19zm-1.16 0.34c-0.06,-0.05 -0.11,-0.06 -0.15,-0.03 -0.04,0.02 -0.09,0.06 -0.16,0.11 -0.08,0.08 -0.11,0.16 -0.06,0.26 0.03,0.08 0.06,0.13 0.08,0.16 0.02,0.04 0.07,0.05 0.15,0.05 0.08,-0.01 0.14,-0.03 0.17,-0.06 0.02,-0.04 0.05,-0.09 0.07,-0.17 0.01,-0.08 0.02,-0.15 0.02,-0.19 0,-0.05 -0.04,-0.09 -0.12,-0.13zm3.45 0.34l-0.09 -0.05 -0.15 0.08 0.1 0.18 0.14 -0.1 0 -0.11zm-5.14 0.1c-0.06,-0.08 -0.13,-0.1 -0.23,-0.07 -0.06,0.02 -0.11,0.05 -0.14,0.07 -0.02,0.02 -0.04,0.06 -0.04,0.13 0,0.06 0.02,0.1 0.05,0.12 0.03,0.02 0.08,0.04 0.15,0.06 0.1,0.02 0.17,0 0.23,-0.07 0.05,-0.07 0.04,-0.16 -0.02,-0.24zm0.83 -0.02c-0.05,-0.06 -0.13,-0.07 -0.21,-0.03 -0.11,0.04 -0.16,0.1 -0.15,0.18 0.01,0.05 0.03,0.08 0.07,0.09 0.03,0 0.07,0.01 0.11,0.02 0.07,0.01 0.11,-0.01 0.15,-0.06 0.02,-0.05 0.04,-0.08 0.05,-0.11 0.02,-0.03 0.01,-0.06 -0.02,-0.09zm4.22 0.62l-0.18 0.03 -0.07 0.18 0.18 0.07 0.16 -0.1 -0.09 -0.18z"/></svg>