<svg xmlns="http://www.w3.org/2000/svg" width="24" height="24" viewBox="0 0 24 24"><title>alisa</title><path fill="#58A6FF" fill-rule="nonzero" d="M11.8 22.1c-5.51,0 -9.98,-4.46 -9.98,-9.97 0,-5.51 4.47,-9.98 9.98,-9.98 5.51,0 9.98,4.47 9.98,9.98 0,5.51 -4.47,9.97 -9.98,9.97zm12.11 1.9l0 0 0 -23.98 -24.34 0 0 23.98 24.34 0zm-8.02 -12.58c-0.21,0.45 -1.38,0.29 -1.26,-0.62 0.15,-1.17 0.67,-1.77 -0.09,-3.85 -0.32,-0.85 1.67,0.25 1.7,0.41 0.33,1.62 0.21,2.86 -0.35,4.06zm0.35 -4.32l0 0c-0.25,-0.59 -0.75,-1.74 -1.67,-2.03 -0.9,-0.28 -0.59,-0.62 -1.09,-0.79 -0.39,-0.14 -0.56,0 -0.91,-0.09 -0.36,-0.09 -0.42,-0.38 -0.92,-0.5 -0.46,-0.11 -0.58,0.09 -0.85,0.12 -0.26,0.03 -0.46,0.02 -0.53,-0.03 -0.44,-0.36 -1.85,-0.68 -2.05,-0.56 -0.21,0.12 1.94,0.53 1.32,0.94 -0.35,0.23 -1.47,-0.56 -1.88,-0.35 -0.13,0.06 1.34,0.47 1.06,0.73 -0.37,0.34 -1.36,-0.32 -1.74,0 -0.13,0.11 0.89,0.12 1,0.38 0.15,0.35 -0.91,0.39 -1.23,0.36 -0.13,-0.01 0.59,0.26 0.59,0.32 0,0.18 -0.39,0.5 -0.36,0.53 0.56,-0.12 2.88,-2.06 3.62,-1.74 0.24,0.11 0.26,0.33 0.73,0.41 0.4,0.06 0.59,-0.16 0.96,-0.01 0.35,0.14 0.31,0.36 0.55,0.5 0.28,0.16 0.53,0.09 0.79,0.11 0.19,0.01 0.21,0.46 -0.06,0.52 -0.24,0.06 -1.18,0.06 -1.58,-0.05 -0.39,-0.12 -0.39,-0.37 -1.19,-0.27 0.58,-0.04 1.22,2.1 -0.42,2.47 0.66,-1.6 -0.75,-2.79 -1.06,-2.46 -1.13,1.2 0.23,2.45 -0.03,2.53 -0.19,0.07 -0.75,-0.3 -0.84,-1.07 -1.26,0.38 -2.23,2.81 -2.08,3.63 1.85,-1.03 3.01,-0.41 3.17,-0.32 0.19,0.1 0.29,0.28 -0.03,0.28 -1.28,0 -2.82,0.85 -2.88,2.76 -0.11,3.65 3.79,4.61 4.17,4.7 0.39,0.09 1.37,0.17 2,1.18 0.67,1.07 1.62,1.82 1.97,1.76 -0.32,-0.56 -1.5,-2.29 0.3,-3.61 0.11,-0.15 7.11,-5.06 1.17,-10.35z"/></svg>