<svg xmlns="http://www.w3.org/2000/svg" width="24" height="24" viewBox="0 0 24 24"><title>alisa</title><path fill="#58A6FF" fill-rule="nonzero" d="M5.58 8.23c0.53,0.39 0.48,-0.17 1.2,0.89 0.78,0.08 1.63,0.08 2.43,0.11 0.53,0.02 0.71,0.13 1.08,-0.17 0.28,-0.23 0.64,-0.21 0.86,0.03 0.32,0.33 0.03,0.61 0.18,0.91 0.07,0.15 1.5,1.66 1.68,2.03 0.37,-0.04 1.46,-0.5 1.84,0.87 0.65,0.04 1.3,0.05 1.94,0.08 1.81,0.1 0.88,-0.06 1.64,-0.25 1.11,-0.28 1,1.56 -0.03,1.22 -0.3,-0.1 -0.31,-0.27 -0.47,-0.49 -0.59,-0.05 -2.59,-0.18 -3.08,-0.1 -0.28,0.57 -0.41,0.83 -1.16,0.92 -0.14,0.65 -0.19,1.39 -0.29,2.04 -0.33,2.21 0.12,0.94 0.1,1.83 -0.01,0.63 -0.17,0.24 0.27,0.76l1.03 1.23c0.17,0.21 0.35,0.4 0.5,0.6 1.66,-0.54 1.62,0.69 1.88,1.03 1.06,-0.86 1.89,-1.64 2.62,-3 0.67,-1.24 1.19,-2.76 1.2,-4.44 0,-3.43 -6.06,-11.63 -8.74,-14.33 -2.24,2.35 -5.11,5.41 -6.68,8.23zm7.67 5.94c-0.35,-0.11 -0.58,-0.32 -0.71,-0.71 -0.17,-0.55 0.04,-0.79 0.21,-1.14 -0.37,-0.55 -1.54,-1.72 -1.78,-2.15 -0.59,0.01 -0.69,-0.05 -0.93,-0.49l-3.22 -0.13c-0.15,0.82 -0.54,1.09 -1.42,1.15l-0.4 3.11c0.54,0.49 0.28,0.28 0.34,0.91 0.03,0.27 1.41,1.65 1.72,2.21 0.47,-0.08 1.51,-0.43 1.82,0.84l3.38 0.13c0.2,-0.23 0.21,-0.31 0.57,-0.4l0.42 -3.33zm1.99 8.58c-0.81,-0.84 -0.49,-1.1 -0.27,-1.75 -0.17,-0.26 -1.72,-2.13 -1.89,-2.19 -0.61,-0.22 -0.22,0.21 -0.86,-0.48l-3.34 -0.13c-0.14,0.62 -0.51,0.84 -1.14,0.99l-0.33 2.65c1.14,0.85 3.4,1.57 4.59,1.51 0.57,-0.02 2.67,-0.31 3.24,-0.6zm-10.21 -7.72c-0.55,0.06 -0.99,-0.1 -0.93,-0.69 0.08,-0.64 0.42,-0.09 0.54,-1.02 0.11,-0.93 0.3,-1.92 0.36,-2.82l-0.38 -0.33c-0.64,1.44 -1.06,2.85 -1.04,3 -0.49,2.96 1.3,7.03 3.42,8.36l0.31 -2.41c-0.55,-0.43 -1.14,-0.76 -0.54,-1.87 -0.13,-0.29 -0.66,-0.87 -0.89,-1.14 -0.25,-0.3 -0.67,-0.76 -0.85,-1.08z"/></svg>